<svg width="136" height="33" viewBox="0 0 136 33" fill="none" xmlns="http://www.w3.org/2000/svg">
<g clip-path="url(#clip0_6_83)">
<path d="M131.401 19.5794L129.905 15.8447H121.088L119.591 19.5794H115.156L123.428 0.356995H127.864L136 19.5794H131.401ZM122.503 12.3573H128.517L125.524 4.88799L122.503 12.3573Z" fill="#F5F5F5"/>
<path d="M102.425 0.356995H106.725V19.5794H102.425V0.356995Z" fill="#F5F5F5"/>
<path d="M93.6444 19.5794H88.5015L83.0047 11.6982L80.2836 14.7463V19.5794H75.9841V0.356995H80.2836V9.30913L88.1749 0.356995H93.1818L85.998 8.34801L93.6444 19.5794Z" fill="#F5F5F5"/>
<path d="M64.8253 5.7118C63.8457 5.10766 62.8026 4.63168 61.696 4.28385C60.6075 3.91771 59.6733 3.73464 58.8932 3.73464C58.1494 3.73464 57.5598 3.87194 57.1245 4.14654C56.6891 4.42115 56.4714 4.8239 56.4714 5.35481C56.4714 6.03217 56.7798 6.55392 57.3966 6.92006C58.0315 7.26789 59.0021 7.63403 60.3082 8.01848C61.6144 8.40293 62.6847 8.78738 63.5192 9.17183C64.3718 9.55627 65.0974 10.1329 65.6961 10.9018C66.2948 11.6707 66.5941 12.6868 66.5941 13.95C66.5941 15.1765 66.2676 16.2383 65.6145 17.1354C64.9795 18.0141 64.0997 18.6823 62.9749 19.14C61.8502 19.5977 60.5713 19.8265 59.1381 19.8265C57.5961 19.8265 56.0813 19.5519 54.5938 19.0027C53.1062 18.4535 51.8182 17.7029 50.7297 16.7509L52.4441 13.2085C53.4055 14.0873 54.5121 14.7921 55.7639 15.323C57.0156 15.8539 58.1585 16.1193 59.1925 16.1193C60.0815 16.1193 60.7708 15.9546 61.2606 15.6251C61.7686 15.2955 62.0225 14.8195 62.0225 14.1971C62.0225 13.7028 61.8502 13.3001 61.5055 12.9888C61.179 12.6593 60.7527 12.3939 60.2266 12.1925C59.7186 11.9911 59.0111 11.7623 58.1041 11.506C56.7979 11.1398 55.7276 10.7737 54.8931 10.4075C54.0768 10.0414 53.3693 9.48305 52.7706 8.73246C52.172 7.98187 51.8726 6.98414 51.8726 5.73926C51.8726 4.58591 52.181 3.57903 52.7978 2.7186C53.4146 1.83986 54.2763 1.17165 55.3829 0.713975C56.4895 0.237992 57.7775 0 59.247 0C60.5531 0 61.8411 0.192224 63.111 0.576672C64.3809 0.96112 65.5056 1.47372 66.4852 2.11446L64.8253 5.7118Z" fill="#F5F5F5"/>
<path d="M39.3234 19.5794L37.8268 15.8447H29.0102L27.5136 19.5794H23.0781L31.3504 0.356995H35.7859L43.9222 19.5794H39.3234ZM30.4253 12.3573H36.439L33.4457 4.88799L30.4253 12.3573Z" fill="#F5F5F5"/>
<path d="M14.0956 5.7118C13.116 5.10766 12.0729 4.63168 10.9663 4.28385C9.8778 3.91771 8.94354 3.73464 8.16347 3.73464C7.41969 3.73464 6.83011 3.87194 6.39472 4.14654C5.95933 4.42115 5.74164 4.8239 5.74164 5.35481C5.74164 6.03217 6.05004 6.55392 6.66684 6.92006C7.30177 7.26789 8.27232 7.63403 9.57847 8.01848C10.8846 8.40293 11.955 8.78738 12.7894 9.17183C13.6421 9.55627 14.3677 10.1329 14.9664 10.9018C15.565 11.6707 15.8643 12.6868 15.8643 13.95C15.8643 15.1765 15.5378 16.2383 14.8847 17.1354C14.2498 18.0141 13.37 18.6823 12.2452 19.14C11.1205 19.5977 9.84152 19.8265 8.40838 19.8265C6.86639 19.8265 5.35161 19.5519 3.86404 19.0027C2.37648 18.4535 1.08846 17.7029 0 16.7509L1.71433 13.2085C2.6758 14.0873 3.78241 14.7921 5.03414 15.323C6.28587 15.8539 7.42876 16.1193 8.4628 16.1193C9.35171 16.1193 10.0411 15.9546 10.5309 15.6251C11.0388 15.2955 11.2928 14.8195 11.2928 14.1971C11.2928 13.7028 11.1205 13.3001 10.7758 12.9888C10.4492 12.6593 10.0229 12.3939 9.49684 12.1925C8.98889 11.9911 8.28139 11.7623 7.37434 11.506C6.06818 11.1398 4.99786 10.7737 4.16337 10.4075C3.34702 10.0414 2.63952 9.48305 2.04087 8.73246C1.44221 7.98187 1.14289 6.98414 1.14289 5.73926C1.14289 4.58591 1.45128 3.57903 2.06808 2.7186C2.68488 1.83986 3.54658 1.17165 4.65318 0.713975C5.75978 0.237992 7.0478 0 8.51722 0C9.82338 0 11.1114 0.192224 12.3813 0.576672C13.6511 0.96112 14.7759 1.47372 15.7555 2.11446L14.0956 5.7118Z" fill="#F5F5F5"/>
<rect x="59.1772" y="32.6401" width="58.9753" height="3.91545" transform="rotate(-180 59.1772 32.6401)" fill="#F5F5F5"/>
</g>
<defs>
<clipPath id="clip0_6_83">
<rect width="136" height="33" fill="white"/>
</clipPath>
</defs>
</svg>
