<svg width="18" height="16" viewBox="0 0 18 16" fill="none" xmlns="http://www.w3.org/2000/svg">
<path d="M1.5 9.18198C1.22386 9.18198 1 9.40588 1 9.68198C1 9.95808 1.22386 10.182 1.5 10.182V9.68198V9.18198ZM17.3536 10.0356C17.5488 9.84028 17.5488 9.52368 17.3536 9.32838L14.1716 6.14645C13.9763 5.95118 13.6597 5.95118 13.4645 6.14645C13.2692 6.34171 13.2692 6.65829 13.4645 6.85355L16.2929 9.68198L13.4645 12.5104C13.2692 12.7057 13.2692 13.0223 13.4645 13.2175C13.6597 13.4128 13.9763 13.4128 14.1716 13.2175L17.3536 10.0356ZM1.5 9.68198V10.182H17V9.68198V9.18198H1.5V9.68198Z" fill="#F5F5F5"/>
</svg>
