<svg width="18" height="16" viewBox="0 0 18 16" fill="none" xmlns="http://www.w3.org/2000/svg">
<path d="M1.5 7.18198C1.22386 7.18198 1 7.40588 1 7.68198C1 7.95808 1.22386 8.18198 1.5 8.18198V7.68198V7.18198ZM17.3536 8.03558C17.5488 7.84028 17.5488 7.52368 17.3536 7.32838L14.1716 4.14645C13.9763 3.95118 13.6597 3.95118 13.4645 4.14645C13.2692 4.34171 13.2692 4.65829 13.4645 4.85355L16.2929 7.68198L13.4645 10.5104C13.2692 10.7057 13.2692 11.0223 13.4645 11.2175C13.6597 11.4128 13.9763 11.4128 14.1716 11.2175L17.3536 8.03558ZM1.5 7.68198V8.18198H17V7.68198V7.18198H1.5V7.68198Z" fill="#F5F5F5"/>
</svg>
