<svg width="18" height="16" viewBox="0 0 18 16" fill="none" xmlns="http://www.w3.org/2000/svg">
<path d="M1.5 8.18198C1.22386 8.18198 1 8.40588 1 8.68198C1 8.95808 1.22386 9.18198 1.5 9.18198V8.68198V8.18198ZM17.3536 9.03558C17.5488 8.84028 17.5488 8.52368 17.3536 8.32838L14.1716 5.14645C13.9763 4.95118 13.6597 4.95118 13.4645 5.14645C13.2692 5.34171 13.2692 5.65829 13.4645 5.85355L16.2929 8.68198L13.4645 11.5104C13.2692 11.7057 13.2692 12.0223 13.4645 12.2175C13.6597 12.4128 13.9763 12.4128 14.1716 12.2175L17.3536 9.03558ZM1.5 8.68198V9.18198H17V8.68198V8.18198H1.5V8.68198Z" fill="#F5F5F5"/>
</svg>
