<svg width="24" height="24" viewBox="0 0 24 24" fill="none" xmlns="http://www.w3.org/2000/svg">
<path d="M4 11.5C3.72386 11.5 3.5 11.7239 3.5 12C3.5 12.2761 3.72386 12.5 4 12.5V12V11.5ZM19.8536 12.3536C20.0488 12.1583 20.0488 11.8417 19.8536 11.6464L16.6716 8.46447C16.4763 8.2692 16.1597 8.2692 15.9645 8.46447C15.7692 8.65973 15.7692 8.97631 15.9645 9.17157L18.7929 12L15.9645 14.8284C15.7692 15.0237 15.7692 15.3403 15.9645 15.5355C16.1597 15.7308 16.4763 15.7308 16.6716 15.5355L19.8536 12.3536ZM4 12V12.5H19.5V12V11.5H4V12Z" fill="#0A0A0A"/>
</svg>
