<svg width="84" height="84" viewBox="0 0 84 84" fill="none" xmlns="http://www.w3.org/2000/svg">
<rect x="72.7916" y="14" width="1.2084" height="56.7949" fill="#FF0000"/>
<path d="M63.7286 21.8548C64.2119 22.8215 70.3748 27.0912 73.3958 29.1052L72.7916 30.3135C67.958 29.7093 56.4782 31.5219 51.0404 37.5639C46.6901 42.3976 36.7409 44.0088 32.31 44.2102C46.2066 44.8919 49.2278 44.8144 55.2698 39.9808C60.1034 36.1139 68.965 33.5359 72.7916 32.7303V37.5639L66.7496 41.1892L72.7916 41.7934V43.0018L63.7286 42.3976C65.1786 45.2977 70.3748 48.0368 72.7916 49.0438V51.4606C68.4413 50.4938 63.7286 45.8214 61.916 43.606L56.4782 47.2312C62.7619 48.6812 68.7636 53.8774 70.979 56.2942L72.7916 54.4816V61.1278C70.979 61.3292 66.8704 61.732 64.937 61.732C62.5202 61.732 50.4362 61.1278 48.6236 61.732C46.811 62.3362 49.2278 63.5446 50.4362 63.5446C51.6446 63.5446 44.3942 69.5866 43.79 63.5446C43.3066 58.711 60.5062 57.5026 69.1664 57.5026C66.7496 52.669 61.916 52.0648 58.2908 49.648C55.3906 47.7145 44.1928 46.8284 38.9564 46.627L52.8529 55.0858H58.895V56.8984H43.79C36.5395 46.627 24.4555 44.2102 19.6219 43.606C15.755 43.1226 14.3855 45.0158 14.1841 46.0228C12.1701 46.4256 8.62542 46.5061 10.5589 43.606C12.9757 39.9808 19.6219 42.3976 25.6639 42.3976C31.7059 42.3976 33.5185 40.585 34.1227 39.3766C34.606 38.4098 31.5045 38.1681 29.8933 38.1681C27.6779 38.571 23.9722 38.7724 26.8723 36.3555C29.7725 33.9387 36.5395 36.1541 39.5605 37.5639L41.3731 36.3555C44.3941 30.3135 34.1227 30.3135 32.31 30.3135C30.86 30.3135 31.303 29.508 31.7058 29.1052C37.5062 26.2051 44.1927 29.9108 46.8109 32.1261C50.9503 27.9868 60.159 27.5308 64.8592 27.8434C60.6859 27.214 55.1425 21.2187 52.8529 20.6463C50.4361 20.0421 49.8319 21.2505 47.4151 21.8548C45.4817 22.3382 45.8039 20.8478 46.2067 20.0422C54.6655 17.6254 63.1244 20.6464 63.7286 21.8548Z" fill="#FF0000"/>
</svg>
