<svg width="84" height="84" viewBox="0 0 84 84" fill="none" xmlns="http://www.w3.org/2000/svg">
<path d="M20.6466 33.1115L13.8649 21.48C17.4818 19.0429 28.208 14.1355 42.1782 14.0026C56.1483 13.8696 67.2136 18.9321 71 21.48L64.2184 33.1115C61.4492 31.1729 53.1644 27.2957 42.1782 27.2957C31.192 27.2957 23.2462 31.1729 20.6466 33.1115Z" fill="#FF0000"/>
<path d="M42.1782 70L35.227 57.87C39.1264 55.1006 46.5184 49.163 44.8908 47.5678C43.2632 45.9726 34.8314 48.5648 30.819 50.0603L27.9368 45.5738C30.4799 42.4167 42.1782 38.4288 40.9914 37.0994C39.8046 35.7701 30.819 39.0934 29.8017 39.4257C28.7845 39.7581 20.3075 44.743 19.1207 43.5799C18.1713 42.6493 19.4033 40.9766 20.1379 40.2566C21.1552 39.315 22.9523 37.2656 22.0029 36.601C21.0534 35.9363 15.8429 40.7551 13.3563 43.2475L12 42.0844C18.4425 33.2777 31.4971 30.4529 32.3448 31.2837C33.023 31.9484 30.2538 33.9977 28.7845 34.9393C27.0326 36.0471 23.6644 38.4288 24.2069 39.0934C24.8851 39.9242 29.9713 36.9333 30.819 36.601C31.6667 36.2686 42.1782 33.1115 49.6379 33.7762C57.0977 34.4408 54.046 37.4318 52.5201 37.5979C50.9943 37.7641 48.7902 38.5949 44.5517 39.7581C40.3132 40.9212 36.5833 43.2475 37.092 44.0784C37.6006 44.9092 42.1782 44.2445 44.0431 44.0784C45.908 43.9122 53.1983 43.746 55.5718 46.5708C57.9454 49.3956 54.5546 53.0512 53.1983 56.0422C52.1132 58.435 45.3994 66.3444 42.1782 70Z" fill="#FF0000"/>
</svg>
