<svg xmlns="http://www.w3.org/2000/svg" version="1.1" xmlns:xlink="http://www.w3.org/1999/xlink" xmlns:svgjs="http://svgjs.dev/svgjs" width="1000" height="1000"><style>
    #light-icon {
      display: inline;
    }
    #dark-icon {
      display: none;
    }

    @media (prefers-color-scheme: dark) {
      #light-icon {
        display: none;
      }
      #dark-icon {
        display: inline;
      }
    }
  </style><g id="light-icon"><svg xmlns="http://www.w3.org/2000/svg" version="1.1" xmlns:xlink="http://www.w3.org/1999/xlink" xmlns:svgjs="http://svgjs.dev/svgjs" width="1000" height="1000"><g><g transform="matrix(31.25,0,0,31.25,0,0)"><svg xmlns="http://www.w3.org/2000/svg" version="1.1" xmlns:xlink="http://www.w3.org/1999/xlink" xmlns:svgjs="http://svgjs.dev/svgjs" width="32" height="32"><svg width="32" height="32" viewBox="0 0 32 32" fill="none" xmlns="http://www.w3.org/2000/svg">
<rect x="22" y="29.7986" width="13" height="3.575" transform="rotate(-180 22 29.7986)" fill="#0A0A0A"></rect>
<path d="M20.532 7.6306C19.7305 7.14083 18.8771 6.75494 17.9718 6.47295C17.0813 6.17612 16.3169 6.0277 15.6788 6.0277C15.0702 6.0277 14.5879 6.13901 14.2317 6.36164C13.8755 6.58426 13.6974 6.91078 13.6974 7.34119C13.6974 7.89033 13.9497 8.31332 14.4543 8.61015C14.9738 8.89214 15.7678 9.18897 16.8364 9.50065C17.905 9.81233 18.7807 10.124 19.4634 10.4357C20.1609 10.7474 20.7546 11.2149 21.2444 11.8382C21.7341 12.4616 21.979 13.2853 21.979 14.3094C21.979 15.3037 21.7119 16.1646 21.1776 16.8918C20.6581 17.6042 19.9383 18.1459 19.0181 18.517C18.0979 18.888 17.0516 19.0735 15.8791 19.0735C14.6176 19.0735 13.3783 18.8509 12.1613 18.4057C10.9443 17.9604 9.8905 17.3519 9 16.5801L10.4025 13.7083C11.1891 14.4207 12.0945 14.9921 13.1186 15.4225C14.1426 15.8529 15.0777 16.0681 15.9236 16.0681C16.6509 16.0681 17.2149 15.9345 17.6156 15.6674C18.0312 15.4002 18.2389 15.0143 18.2389 14.5097C18.2389 14.109 18.0979 13.7825 17.8159 13.5302C17.5488 13.263 17.2 13.0478 16.7696 12.8846C16.354 12.7213 15.7752 12.5358 15.0331 12.328C13.9645 12.0312 13.0889 11.7343 12.4062 11.4375C11.7383 11.1407 11.1595 10.688 10.6697 10.0795C10.1799 9.47097 9.93502 8.6621 9.93502 7.65286C9.93502 6.71784 10.1873 5.90155 10.692 5.20399C11.1966 4.49159 11.9015 3.94987 12.8069 3.57883C13.7122 3.19294 14.766 3 15.9682 3C17.0368 3 18.0905 3.15584 19.1294 3.46751C20.1684 3.77919 21.0885 4.19475 21.89 4.71421L20.532 7.6306Z" fill="#0A0A0A"></path>
</svg></svg></g></g></svg></g><g id="dark-icon"><svg xmlns="http://www.w3.org/2000/svg" version="1.1" xmlns:xlink="http://www.w3.org/1999/xlink" xmlns:svgjs="http://svgjs.dev/svgjs" width="1000" height="1000"><g><g transform="matrix(31.25,0,0,31.25,0,0)"><svg xmlns="http://www.w3.org/2000/svg" version="1.1" xmlns:xlink="http://www.w3.org/1999/xlink" xmlns:svgjs="http://svgjs.dev/svgjs" width="32" height="32"><svg width="32" height="32" viewBox="0 0 32 32" fill="none" xmlns="http://www.w3.org/2000/svg">
<rect x="22" y="29.7986" width="13" height="3.575" transform="rotate(-180 22 29.7986)" fill="#F5F5F5"></rect>
<path d="M20.532 7.6306C19.7305 7.14083 18.8771 6.75494 17.9718 6.47295C17.0813 6.17612 16.3169 6.0277 15.6788 6.0277C15.0702 6.0277 14.5879 6.13901 14.2317 6.36164C13.8755 6.58426 13.6974 6.91078 13.6974 7.34119C13.6974 7.89033 13.9497 8.31332 14.4543 8.61015C14.9738 8.89214 15.7678 9.18897 16.8364 9.50065C17.905 9.81233 18.7807 10.124 19.4634 10.4357C20.1609 10.7474 20.7546 11.2149 21.2444 11.8382C21.7341 12.4616 21.979 13.2853 21.979 14.3094C21.979 15.3037 21.7119 16.1646 21.1776 16.8918C20.6581 17.6042 19.9383 18.1459 19.0181 18.517C18.0979 18.888 17.0516 19.0735 15.8791 19.0735C14.6176 19.0735 13.3783 18.8509 12.1613 18.4057C10.9443 17.9604 9.8905 17.3519 9 16.5801L10.4025 13.7083C11.1891 14.4207 12.0945 14.9921 13.1186 15.4225C14.1426 15.8529 15.0777 16.0681 15.9236 16.0681C16.6509 16.0681 17.2149 15.9345 17.6156 15.6674C18.0312 15.4002 18.2389 15.0143 18.2389 14.5097C18.2389 14.109 18.0979 13.7825 17.8159 13.5302C17.5488 13.263 17.2 13.0478 16.7696 12.8846C16.354 12.7213 15.7752 12.5358 15.0331 12.328C13.9645 12.0312 13.0889 11.7343 12.4062 11.4375C11.7383 11.1407 11.1595 10.688 10.6697 10.0795C10.1799 9.47097 9.93502 8.6621 9.93502 7.65286C9.93502 6.71784 10.1873 5.90155 10.692 5.20399C11.1966 4.49159 11.9015 3.94987 12.8069 3.57883C13.7122 3.19294 14.766 3 15.9682 3C17.0368 3 18.0905 3.15584 19.1294 3.46751C20.1684 3.77919 21.0885 4.19475 21.89 4.71421L20.532 7.6306Z" fill="#F5F5F5"></path>
</svg></svg></g></g></svg></g></svg>